{"title":"Game of Thrones S06E07 720p 450MB ~{KiNg}","uid":14811762,"size":471225968,"categoryP":"video","categoryS":"hd___tv_shows","magnet":"?xt=urn:btih:39f3a933c08d72d775835b5df126b241f2c0153d&amp;dn=Game+of+Thrones+S06E07+720p+450MB+%7E%7BKiNg%7D&amp;tr=udp%3A%2F%2Ftracker.leechers-paradise.org%3A6969&amp;tr=udp%3A%2F%2Fzer0day.ch%3A1337&amp;tr=udp%3A%2F%2Fopen.demonii.com%3A1337&amp;tr=udp%3A%2F%2Ftracker.coppersurfer.tk%3A6969&amp;tr=udp%3A%2F%2Fexodus.desync.com%3A6969","seeders":1,"leechers":0,"uploader":"Uplaoderking","files":1,"time":1465198094,"description":"General\r\nFormat : Matroska\r\nFormat version : Version 4 / Version 2\r\nFile size : 449 MiB\r\nDuration : 50mn 13s\r\nOverall bit rate : 1 251 Kbps\r\n\r\nVideo\r\nID : 1\r\nFormat : AVC\r\nFormat/Info : Advanced Video Codec\r\nFormat profile :   \r\nFormat settings, CABAC : Yes\r\nFormat settings, ReFrames : 4 frames\r\nCodec ID : V_MPEG4/ISO/AVC\r\nDuration : 50mn 13s\r\nBit rate : 1 168 Kbps\r\nWidth : 1 280 pixels\r\nHeight : 704 pixels\r\nDisplay aspect ratio : 16:9\r\nFrame rate mode : Constant\r\nFrame rate : 23.976 (24000/1001) fps\r\nColor space : YUV\r\nChroma subsampling : 4:2:0\r\nBit depth : 8 bits\r\nScan type : Progressive\r\nBits/(Pixel*Frame) : 0.054\r\nStream size : 420 MiB (93%)\r\n\r\nAudio\r\nID : 2\r\nFormat : AAC\r\nFormat/Info : Advanced Audio Codec\r\nFormat profile : LC\r\nCodec ID : A_AAC\r\nDuration : 50mn 13s\r\nBit rate : 80.3 Kbps\r\nChannel(s) : 2 channels\r\nChannel positions : Front: L R\r\nSampling rate : 48.0 KHz\r\nFrame rate : 46.875 fps (1024 spf)\r\nCompression mode : Lossy\r\nDelay relative to video : 9ms\r\nStream size : 28.8 MiB (6%)\r\nLanguage : English\r\nDefault : No\r\nForced : No","torrent":{"xt":"urn:btih:39f3a933c08d72d775835b5df126b241f2c0153d","amp;dn":"Game+of+Thrones+S06E07+720p+450MB+%7E%7BKiNg%7D","amp;tr":["udp%3A%2F%2Ftracker.leechers-paradise.org%3A6969","udp%3A%2F%2Fzer0day.ch%3A1337","udp%3A%2F%2Fopen.demonii.com%3A1337","udp%3A%2F%2Ftracker.coppersurfer.tk%3A6969","udp%3A%2F%2Fexodus.desync.com%3A6969"],"infoHash":"39f3a933c08d72d775835b5df126b241f2c0153d","infoHashBuffer":{"type":"Buffer","data":[57,243,169,51,192,141,114,215,117,131,91,93,241,38,178,65,242,192,21,61]},"announce":[],"urlList":[]}}